<svg width="415" height="415" viewBox="0 0 415 415" fill="none" xmlns="http://www.w3.org/2000/svg">
<path fill-rule="evenodd" clip-rule="evenodd" d="M207.5 415C322.099 415 415 322.099 415 207.5C415 92.9009 322.099 0 207.5 0C92.9009 0 0 92.9009 0 207.5C0 322.099 92.9009 415 207.5 415ZM208 385C306.307 385 386 305.307 386 207C386 108.693 306.307 29 208 29C109.693 29 30 108.693 30 207C30 305.307 109.693 385 208 385Z" fill="#00AEC7"/>
<path d="M260.109 37.998C260.393 46.8451 262.727 55.2579 267.11 63.2363C273.884 77.4587 294.197 102.7 328.049 138.961L367.384 130.635L367.391 130.636C360.291 115.905 351.012 101.996 339.554 88.9092C316.823 64.2362 290.343 47.2659 260.115 37.9984L260.109 37.998Z" fill="#6C411C"/>
<path d="M157.055 37.2196C132.082 44.5217 109.166 57.3629 88.3076 75.7431C52.5071 109.321 33.1129 150.146 30.1251 198.217C28.4502 247.285 43.5928 289.965 75.5527 326.257C89.0946 340.755 103.84 352.573 119.788 361.71C125.29 350.106 128.121 342.058 128.281 337.566C128.423 335.828 128.325 334.119 127.985 332.438C124.611 323.266 122.973 316.856 123.073 313.209C122.633 307.12 123.378 296.584 125.309 281.6C139.112 270.597 145.595 261.834 144.758 255.311C145.28 247.708 135.929 235.477 116.707 218.617C139.34 195.216 151.249 180.303 152.432 173.878C153.616 170.334 152.99 167.114 150.557 164.219C149.607 163.098 148.035 161.913 145.84 160.664L136.21 156.127C140.413 149.127 144.851 143.723 149.524 139.916C150.194 138.699 158.275 133.393 173.766 123.997C176.768 121.9 179.386 119.679 181.62 117.334C186.538 112.181 188.934 106.401 188.807 99.993C189.323 88.8451 178.741 67.9207 157.06 37.2199L157.055 37.2196Z" fill="#FFCC9F"/>
<path d="M274.504 49.6955C267.752 49.25 261.202 51.4164 254.855 56.1947C246.641 62.7193 241.078 72.6806 238.165 86.0788C232.26 114.515 236.941 149.287 252.208 190.394C266.226 226.903 278.383 251.107 288.678 263.007C291.832 267.394 296.545 269.794 302.816 270.208C308.327 270.572 315.041 269.401 322.959 266.698L333.277 332.324C364.589 300.215 381.698 261.791 384.603 217.051C385.76 185.642 380.021 156.834 367.387 130.626L367.394 130.627C367.229 130.615 367.063 130.603 366.898 130.592C362.943 130.331 358.77 130.363 354.379 130.687C353.231 130.611 352.232 130.775 351.382 131.178C347.694 133.183 341.895 134.632 333.984 135.525C336.451 120.056 336.138 110.289 333.045 106.225L316.95 89.0159C304.954 72.103 298.133 63.0348 296.485 61.8113C291.924 56.8013 287.308 53.3506 282.636 51.4593C279.894 50.4601 277.183 49.8722 274.504 49.6955Z" fill="#FFCC9F"/>
<path d="M294.658 126.743C294.08 126.746 293.503 126.835 292.927 127.01L292.857 127.033C287.449 129.305 283.079 136.15 279.746 147.57C277.162 157.347 277.185 166.769 279.817 175.838C281.751 182.121 284.67 187.034 288.575 190.576C292.325 194.272 299.041 197.708 308.725 200.883L318.401 211.607C322.068 210.67 323.307 208.688 322.117 205.663C321.781 204.669 321.137 203.4 320.185 201.857C314.155 193.015 310.722 187.681 309.887 185.856C307.95 182.236 306.813 179.162 306.476 176.633C306.199 174.715 306.226 172.696 306.557 170.576C306.494 170.248 307.33 166.622 309.065 159.699C309.415 157.97 309.631 156.304 309.713 154.702C309.911 151.374 309.4 147.661 308.181 143.562C306.43 137.97 304.08 133.538 301.13 130.268C298.952 127.909 296.795 126.734 294.658 126.743ZM268.478 71.215C261.705 71.4501 256.637 78.0758 253.275 91.0922C249.547 106.192 247.666 126.246 247.632 151.254C247.992 163.703 249.951 174.672 253.511 184.163C257.362 194.706 263.851 206.747 272.979 220.287L270.072 204.192C263.886 194.188 259.769 185.677 257.721 178.659C255.904 172.868 254.704 166.487 254.122 159.518C253.323 149.509 253.756 138.206 255.421 125.608C257.149 113.343 259.582 103.601 262.72 96.3815C265.836 89.064 269.498 85.3966 273.705 85.3794C275.807 85.3708 278.045 86.2735 280.419 88.0874C284.058 90.666 288.307 95.3011 293.165 101.993C297.316 107.6 303.59 117.406 311.989 131.411C300.116 107.462 291.394 91.7841 285.823 84.3767C279.666 75.6679 273.896 71.2806 268.512 71.215L268.478 71.215Z" fill="#FF4900" fill-opacity="0.0941176"/>
<path d="M140.04 155.33C137.283 155.302 134.527 156.636 131.772 159.331C130.757 160.299 129.628 161.524 128.387 163.008C121.416 171.922 116.871 177.46 114.754 179.621C111.373 183.315 107.201 187.257 102.237 191.447C95.4116 197.393 82.0898 207.252 62.2713 221.023L61.6429 232.034C66.3992 236.724 74.2552 244.179 85.211 254.399C103.056 271.062 116.43 279.327 125.333 279.195C130.309 279.176 134.644 276.76 138.336 271.945C142.209 266.689 144.644 260.135 145.642 252.282C146.612 244.247 145.399 237.211 142.002 231.175C139.255 225.77 132.987 219.402 123.197 212.071C141.471 194.652 151.393 182.373 152.963 175.232C154.382 170.503 153.793 166.066 151.196 161.921C148.191 157.689 144.492 155.492 140.098 155.33" fill="#F2AABB"/>
<path d="M98.6843 217.215L86.4232 217.45C95.9701 222.001 102.817 225.065 106.963 226.643C111.785 228.513 115.354 229.485 117.671 229.56C120.536 229.656 122.254 228.677 122.824 226.624C123.195 224.028 122.217 221.942 119.889 220.366C118.606 219.476 116.257 218.627 112.843 217.819L98.73 217.217" fill="white"/>
<path d="M124.001 199.041L84.3977 218.642C103.724 213.358 115.49 209.596 119.696 207.357C122.269 206.078 123.867 204.809 124.49 203.551C125.136 202.438 124.976 200.935 124.009 199.044" fill="white"/>
<path d="M116.855 207.641L88.2748 217.163C98.099 217.594 104.865 217.831 108.573 217.874C112.279 217.926 114.519 217.8 115.293 217.497C116.039 217.286 116.451 216.793 116.527 216.018C116.673 215.148 116.784 212.358 116.86 207.648" fill="#1A0202"/>
<path d="M100.956 88.08L69.5791 131.625L112.695 129.565C105.627 127.028 100.769 124.826 98.1201 122.959C95.016 120.871 93.0832 118.492 92.3216 115.823C91.5466 113.161 91.8401 109.661 93.2023 105.324C94.2488 101.788 96.8177 96.0705 100.909 88.1715" fill="#FF0000" fill-opacity="0.0862745"/>
<path d="M144.619 112.679C139.914 112.61 132.098 114.836 121.17 119.355L156.09 116.113C153.886 114.882 151.964 114.016 150.325 113.515C148.51 112.952 146.629 112.674 144.681 112.679" fill="black" fill-opacity="0.372549"/>
</svg>
