<svg width="285" height="52" viewBox="0 0 285 52" fill="none" xmlns="http://www.w3.org/2000/svg">
<path d="M39.3477 18.4473C38.0781 17.959 36.7207 17.7148 35.2754 17.7148C32.3066 17.7148 29.7188 18.7988 27.5117 20.9668C25.3242 23.1152 24.2305 25.6934 24.2305 28.7012C24.2305 30.7129 24.6211 32.2852 25.4023 33.418C26.1836 34.5508 27.248 35.1172 28.5957 35.1172C29.9434 35.1172 31.4277 34.7754 33.0488 34.0918C34.6895 33.3887 37.0918 31.875 40.2559 29.5508V48.623C36.0957 50.3027 31.6719 51.1426 26.9844 51.1426C22.3164 51.1426 18.0098 50.2441 14.0645 48.4473C7.79492 45.5762 3.66406 41.084 1.67188 34.9707C1.00781 32.8809 0.666016 30.5762 0.646484 28.0566C0.646484 25.5371 0.958984 23.125 1.58398 20.8203C2.20898 18.5156 3.11719 16.3867 4.30859 14.4336C6.69141 10.5078 10.0312 7.43164 14.3281 5.20508C18.6445 2.97852 23.5859 1.875 29.1523 1.89453C33.3906 1.89453 36.7891 2.37305 39.3477 3.33008V18.4473ZM64.5137 17.4805C67.1504 13.9648 71.1445 12.207 76.4961 12.207C78.0195 12.207 79.6406 12.5586 81.3594 13.2617C83.0781 13.9648 84.5723 14.9805 85.8418 16.3086C88.5762 19.1406 89.9434 22.8906 89.9434 27.5586V50H72.4238V34.209C72.4238 31.0645 71.916 28.4863 70.9004 26.4746C69.8848 24.4434 68.6934 23.4277 67.3262 23.4277C65.4512 23.4277 64.5137 24.707 64.5137 27.2656V50H47.1113V0.693359H64.5137V17.4805ZM100.842 46.7773C99.2793 45.3125 98.0293 43.4766 97.0918 41.2695C96.1738 39.043 95.7148 36.6504 95.7148 34.0918C95.7148 31.5332 95.9688 29.3164 96.4766 27.4414C97.4922 23.7109 99.2695 20.5762 101.809 18.0371C103.02 16.7871 104.367 15.7324 105.852 14.873C108.898 13.0957 112.111 12.207 115.49 12.207C118.889 12.207 121.867 13.3301 124.426 15.5762C125.246 16.2988 125.959 17.1289 126.564 18.0664L130.754 13.584H140.363V50H130.754L126.564 43.9355C123.361 48.6621 118.508 51.0352 112.004 51.0547C110.207 51.0742 108.283 50.7227 106.232 50C104.201 49.2969 102.404 48.2227 100.842 46.7773ZM124.572 24.6289C123.869 24.2188 123.029 24.0137 122.053 24.0137C121.076 24.0137 120.041 24.3652 118.947 25.0684C117.873 25.752 116.906 26.6211 116.047 27.6758C114.133 30.0391 113.176 32.4414 113.176 34.8828C113.176 36.6016 113.703 37.8125 114.758 38.5156C115.734 39.1602 117.219 39.0723 119.211 38.252C121.223 37.4121 123.01 36.3281 124.572 35V24.6289ZM174.904 47.3633C171.193 49.8828 167.258 51.1426 163.098 51.1426C158.957 51.1426 155.588 49.9707 152.99 47.627C150.393 45.2637 149.094 42.0898 149.094 38.1055V22.8711H145.754V13.584H149.094V3.74023L166.613 1.95312V13.584H174.904V22.8711H166.613V32.0703C166.613 34.8242 167.229 36.8262 168.459 38.0762C169.709 39.3066 171.857 39.9219 174.904 39.9219V47.3633ZM180.354 3.21289H187.062L209.68 24.4531L232.912 3.21289H239.387V50H220.139V34.8242L208.186 47.9492L196.555 35.1758V50H180.354V3.21289ZM270.383 24.0137C270.383 22.2949 269.582 21.4355 267.98 21.4355C266.145 21.6113 264.953 22.5586 264.406 24.2773C264.133 25.0977 263.938 26.0547 263.82 27.1484C263.723 28.2227 263.566 29.375 263.352 30.6055L269.768 29.1699L270.324 24.6875L270.383 24.0137ZM266.428 37.3438C266.428 37.3438 265.891 37.3438 264.816 37.3438C264.309 37.3438 263.82 37.3242 263.352 37.2852C263.352 39.6094 264.592 40.8789 267.072 41.0938C267.756 41.1523 268.42 41.1816 269.064 41.1816C270.725 41.1816 272.805 40.8008 275.305 40.0391C277.824 39.2773 280.08 38.0371 282.072 36.3184L283.889 45.4297C279.533 49.1992 272.951 51.084 264.143 51.084C259.084 51.084 254.738 49.6094 251.105 46.6602C247.16 43.4375 245.188 38.9746 245.188 33.2715C245.188 28.9746 246.301 25.1172 248.527 21.6992C250.598 18.5742 253.4 16.2012 256.936 14.5801C260.471 12.959 264.289 12.1484 268.391 12.1484C273.703 12.1484 277.717 13.3105 280.432 15.6348C283.166 17.959 284.523 20.8301 284.504 24.248C284.504 27.666 282.873 30.7031 279.611 33.3594C276.35 36.0156 271.955 37.3438 266.428 37.3438Z" fill="white"/>
</svg>
